
Format : AVI
Format/Info : Audio Video Interleave
File size : 698 MiB
Duration : 1h 36mn
Overall bit rate : 1 008 Kbps
Writing application : MEncoder SVN-r29352(20090610-gcc4.3.3)
Writing library : MPlayer

Video
ID : 0
Format : AVC
Format/Info : Advanced Video Codec
Format profile : Baseline@L2.1
Format settings, CABAC : No
Format settings, ReFrames : 1 frame
Codec ID : avc1
Duration : 1h 36mn
Bit rate : 870 Kbps
Width : 640 pixels
Height : 272 pixels
Display aspect ratio : 2.35:1
Frame rate : 29.970 fps
Resolution : 24 bits
Colorimetry : 4:2:0
Scan type : Progressive
Bits/(Pixel*Frame) : 0.167
Stream size : 600 MiB (86%)
Writing library : x264 core 67 r1163+17 7d945df

Audio
ID : 1
Format : MPEG Audio
Format version : Version 1
Format profile : Layer 3
Codec ID : 55
Codec ID/Hint : MP3
Duration : 1h 36mn
Bit rate mode : Constant
Bit rate : 128 Kbps
Channel(s) : 2 channels
Sampling rate : 44.1 KHz
Resolution : 16 bits
Stream size : 88.6 MiB (13%)
Alignment : Aligned on interleaves
Interleave, duration : 26 ms (0.78 video frame)
Interleave, preload duration : 522 ms
Writing library : LAME3.98

Starring/voices
Jim Sturgess
Geoffrey Rush
Emily Barclay
Anthony LaPaglia
David Wenham
Ryan Kwanten
Helen Mirren
Sam Neill
Hugo Weaving

Soren (Jim Sturgess) is a young, adventurous Barn Owl who loves hearing stories from his father, Noctus (Hugo Weaving) about the legend of the "Guardians of Ga‘Hoole", a legendary alliance of owls dedicated to doing good works for the owl kingdoms; the most legendary being Lyze of Kiel. His younger sister Eglantine (Adrienne deFaria) is fascinated by these stories. While Soren is telling Eglantine the story of Lyze defeating Metalbeak, leader of an evil army, their older brother Kludd (Ryan Kwanten) scoffs at them, telling Soren he has a "soft head" filled with dreams. Soren replies by simply saying "There‘s nothing wrong with dreams." One night, while branching, Soren and Kludd accidentally fall out of their tree. They are attacked by a tasmanian devil, which scars Kludd‘s face. Soren attacks the tasmanian devil to protect his brother, but it turns on him. When Soren begs Kludd to help him, Kludd leaves him to die and tries to escape himself. Before the devil can kill Soren, however, two owls swoop in and kill it
 
http://www.imdb.com/title/tt1219342/

screens
 
http://img269.imageshack.us/img269/3780/legofguardh264viceavisn.jpg 
http://img6.imageshack.us/img6/3780/legofguardh264viceavisn.jpg 
http://img192.imageshack.us/img192/3780/legofguardh264viceavisn.jpg 
http://img809.imageshack.us/img809/3780/legofguardh264viceavisn.jpg